# xmcd
#
# Track frame offsets: 
#        150
#        27980
#        54982
#        90937
#        118125
#        142810
#        168145
#        228920
#
# Disc length: 4440 seconds
#
# Revision: 1
# Processed by: cddbd v1.5.2PL0 Copyright (c) Steve Scherf et al.
# Submitted via: ExactAudioCopy v1.0b6
#
DISCID=55115608
DTITLE=Herbie Hancock - The Collection A Selection of Tracks from the 
DTITLE=Blue Note Years
DYEAR=2006
DGENRE=Jazz
TTITLE0=Empty Pockets
TTITLE1=Jack Rabbit
TTITLE2=Yams
TTITLE3=The Eye of the Hurricane
TTITLE4=Cantaloupe Island
TTITLE5=The Sorcerer
TTITLE6=I Have a Dream
TTITLE7=data track
EXTD=YEAR: 1977
EXTT0=
EXTT1=
EXTT2=
EXTT3=
EXTT4=
EXTT5=
EXTT6=
EXTT7=
PLAYORDER=
